<?xml version="1.0" encoding="UTF-8"?>
<svg id="_レイヤー_1" data-name="レイヤー 1" xmlns="http://www.w3.org/2000/svg" xmlns:xlink="http://www.w3.org/1999/xlink" viewBox="0 0 320 100">
  <defs>
    <style>
      .cls-1 {
        stroke: #fff;
      }

      .cls-1, .cls-2 {
        fill: none;
        stroke-miterlimit: 10;
        stroke-width: 4px;
      }

      .cls-3 {
        fill: #fff;
      }

      .cls-4 {
        clip-path: url(#clippath);
      }

      .cls-2 {
        stroke: #000;
      }
    </style>
    <clipPath id="clippath">
      <polygon class="cls-3" points="216.09 0 116.09 100 320 100 320 0 216.09 0"/>
    </clipPath>
  </defs>
  <rect width="320" height="100"/>
  <g id="Nercone">
    <g id="Symbol">
      <polyline class="cls-1" points="57.37 59.93 77.64 39.66 77.64 59.93 97.91 39.66 118.18 39.66"/>
      <line class="cls-1" x1="118.18" y1="59.93" x2="97.91" y2="59.93"/>
      <line class="cls-1" x1="97.91" y1="49.8" x2="118.18" y2="49.8"/>
    </g>
    <g id="Text">
      <path class="cls-3" d="M142.51,37.5h4.96v24.57h-4.46l-8.92-15.41v15.41h-4.96v-24.57h4.6l8.77,15.23v-15.23Z"/>
      <path class="cls-3" d="M168.76,55.26h-12.52c.5,1.96,2.07,3.1,4.28,3.1,1.71,0,3.35-.78,4.39-1.96l2.71,2.75c-1.57,2.1-4.46,3.35-7.38,3.35-5.14,0-8.88-3.6-8.88-8.74s4.1-8.77,8.84-8.77,8.67,3.39,8.67,8.49c0,.46-.04,1.03-.11,1.78ZM164.16,52.23c-.14-1.96-1.75-3.21-3.85-3.21-1.93,0-3.57.96-4.07,3.21h7.92Z"/>
      <path class="cls-3" d="M184.63,45.52l-1.07,4.46c-1-.53-1.82-.61-2.39-.61-2.39,0-4.03,2.25-4.03,6.99v5.71h-4.67v-16.65h4.64v3.57c.93-2.78,2.82-3.99,4.89-3.99.89,0,1.89.14,2.64.53Z"/>
      <path class="cls-3" d="M185.6,53.69c0-5.28,4.28-8.7,9.13-8.7,3.03,0,5.46,1.39,7.03,3.57l-3.53,2.46c-.75-1.03-2.14-1.68-3.46-1.68-2.64,0-4.42,1.93-4.42,4.35s1.78,4.46,4.42,4.46c1.32,0,2.71-.64,3.46-1.68l3.53,2.46c-1.57,2.18-3.99,3.57-7.03,3.57-4.85,0-9.13-3.53-9.13-8.81Z"/>
      <path class="cls-3" d="M203.78,53.76c0-5.28,4.21-8.77,8.95-8.77s8.95,3.49,8.95,8.77-4.21,8.74-8.95,8.74-8.95-3.5-8.95-8.74ZM216.94,53.76c0-2.6-1.89-4.42-4.21-4.42s-4.21,1.82-4.21,4.42,1.89,4.39,4.21,4.39,4.21-1.82,4.21-4.39Z"/>
      <path class="cls-3" d="M241.62,52.94v9.13h-4.67v-8.88c0-2.6-1.57-3.78-3.17-3.78s-3.74.89-3.74,3.92v8.74h-4.67v-16.65h4.67v2.71c.78-2.18,3.39-3.14,4.99-3.14,4.35,0,6.63,2.96,6.6,7.95Z"/>
      <path class="cls-3" d="M262.52,55.26h-12.52c.5,1.96,2.07,3.1,4.28,3.1,1.71,0,3.35-.78,4.39-1.96l2.71,2.75c-1.57,2.1-4.46,3.35-7.38,3.35-5.14,0-8.88-3.6-8.88-8.74s4.1-8.77,8.84-8.77,8.67,3.39,8.67,8.49c0,.46-.04,1.03-.11,1.78ZM257.92,52.23c-.14-1.96-1.75-3.21-3.85-3.21-1.93,0-3.57.96-4.07,3.21h7.92Z"/>
    </g>
  </g>
  <g>
    <polygon class="cls-3" points="216.09 0 116.09 100 320 100 320 0 216.09 0"/>
    <g class="cls-4">
      <g id="Nercone-2" data-name="Nercone">
        <g id="Symbol-2" data-name="Symbol">
          <polyline class="cls-2" points="57.37 59.93 77.64 39.66 77.64 59.93 97.91 39.66 118.18 39.66"/>
          <line class="cls-2" x1="118.18" y1="59.93" x2="97.91" y2="59.93"/>
          <line class="cls-2" x1="97.91" y1="49.8" x2="118.18" y2="49.8"/>
        </g>
        <g id="Text-2" data-name="Text">
          <path d="M142.51,37.5h4.96v24.57h-4.46l-8.92-15.41v15.41h-4.96v-24.57h4.6l8.77,15.23v-15.23Z"/>
          <path d="M168.76,55.26h-12.52c.5,1.96,2.07,3.1,4.28,3.1,1.71,0,3.35-.78,4.39-1.96l2.71,2.75c-1.57,2.1-4.46,3.35-7.38,3.35-5.14,0-8.88-3.6-8.88-8.74s4.1-8.77,8.84-8.77,8.67,3.39,8.67,8.49c0,.46-.04,1.03-.11,1.78ZM164.16,52.23c-.14-1.96-1.75-3.21-3.85-3.21-1.93,0-3.57.96-4.07,3.21h7.92Z"/>
          <path d="M184.63,45.52l-1.07,4.46c-1-.53-1.82-.61-2.39-.61-2.39,0-4.03,2.25-4.03,6.99v5.71h-4.67v-16.65h4.64v3.57c.93-2.78,2.82-3.99,4.89-3.99.89,0,1.89.14,2.64.53Z"/>
          <path d="M185.6,53.69c0-5.28,4.28-8.7,9.13-8.7,3.03,0,5.46,1.39,7.03,3.57l-3.53,2.46c-.75-1.03-2.14-1.68-3.46-1.68-2.64,0-4.42,1.93-4.42,4.35s1.78,4.46,4.42,4.46c1.32,0,2.71-.64,3.46-1.68l3.53,2.46c-1.57,2.18-3.99,3.57-7.03,3.57-4.85,0-9.13-3.53-9.13-8.81Z"/>
          <path d="M203.78,53.76c0-5.28,4.21-8.77,8.95-8.77s8.95,3.49,8.95,8.77-4.21,8.74-8.95,8.74-8.95-3.5-8.95-8.74ZM216.94,53.76c0-2.6-1.89-4.42-4.21-4.42s-4.21,1.82-4.21,4.42,1.89,4.39,4.21,4.39,4.21-1.82,4.21-4.39Z"/>
          <path d="M241.62,52.94v9.13h-4.67v-8.88c0-2.6-1.57-3.78-3.17-3.78s-3.74.89-3.74,3.92v8.74h-4.67v-16.65h4.67v2.71c.78-2.18,3.39-3.14,4.99-3.14,4.35,0,6.63,2.96,6.6,7.95Z"/>
          <path d="M262.52,55.26h-12.52c.5,1.96,2.07,3.1,4.28,3.1,1.71,0,3.35-.78,4.39-1.96l2.71,2.75c-1.57,2.1-4.46,3.35-7.38,3.35-5.14,0-8.88-3.6-8.88-8.74s4.1-8.77,8.84-8.77,8.67,3.39,8.67,8.49c0,.46-.04,1.03-.11,1.78ZM257.92,52.23c-.14-1.96-1.75-3.21-3.85-3.21-1.93,0-3.57.96-4.07,3.21h7.92Z"/>
        </g>
      </g>
    </g>
  </g>
  <g>
    <path d="M217.44,72.06v-8.26h1.09v8.26h-1.09Z"/>
    <path d="M228.03,66.46h1.04v5.6h-1.04v-1c-.37.67-1.15,1.14-2.05,1.14-1.46,0-2.75-1.24-2.75-2.95s1.21-2.94,2.79-2.94c.84,0,1.63.36,2,1.02v-.88ZM228.03,69.25c0-1.15-.97-1.96-1.91-1.96-1.02,0-1.83.9-1.83,1.96s.82,1.97,1.85,1.97,1.9-.83,1.9-1.97Z"/>
    <path d="M239.72,68.82v3.24h-1.04v-3.18c0-.93-.52-1.56-1.33-1.56-1-.01-1.51.68-1.51,1.93v2.81h-1.04v-3.18c0-.95-.52-1.56-1.26-1.56-.79,0-1.58.52-1.58,1.7v3.03h-1.04v-5.6h1.04v.86c.28-.61,1.01-1.01,1.8-1.01s1.52.43,1.85,1.2c.52-1.01,1.39-1.2,1.96-1.2,1.4,0,2.17.94,2.17,2.51Z"/>
    <path d="M244.1,69.25c0-1.77,1.4-2.94,3.01-2.94.88,0,1.64.35,2.14.89l-.66.68c-.35-.36-.85-.59-1.44-.59-1.1,0-1.99.8-1.99,1.96s.89,1.97,1.99,1.97c.59,0,1.09-.23,1.44-.59l.66.68c-.49.55-1.26.89-2.14.89-1.61,0-3.01-1.17-3.01-2.95Z"/>
    <path d="M254.84,66.46h1.04v5.6h-1.04v-1c-.37.67-1.15,1.14-2.05,1.14-1.46,0-2.75-1.24-2.75-2.95s1.21-2.94,2.79-2.94c.84,0,1.63.36,2,1.02v-.88ZM254.84,69.25c0-1.15-.97-1.96-1.91-1.96-1.02,0-1.83.9-1.83,1.96s.82,1.97,1.85,1.97,1.9-.83,1.9-1.97Z"/>
    <path d="M260.4,66.46v.9h-1.21v4.7h-1.04v-4.7h-1.01v-.9h1.01v-2.11h1.04v2.11h1.21Z"/>
    <path d="M261.02,71.46c0-.43.35-.74.75-.74s.78.31.78.74-.36.72-.78.72-.75-.3-.75-.72Z"/>
  </g>
</svg>