<?xml version="1.0" encoding="UTF-8"?>
<svg id="_レイヤー_1" data-name="レイヤー 1" xmlns="http://www.w3.org/2000/svg" viewBox="0 0 320 100">
  <defs>
    <style>
      .cls-1 {
        fill: #404040;
      }

      .cls-2 {
        fill: #ccc;
      }

      .cls-3 {
        fill: #636363;
      }

      .cls-4 {
        fill: #818181;
      }
    </style>
  </defs>
  <rect class="cls-1" width="320" height="100"/>
  <g>
    <rect class="cls-2" x="106.88" y="25" width="12.5" height="50"/>
    <rect class="cls-2" x="144.38" y="43.75" width="12.5" height="31.25"/>
    <rect class="cls-2" x="125.62" y="25" width="12.5" height="31.25"/>
    <rect class="cls-2" x="163.12" y="25" width="12.5" height="50"/>
    <rect class="cls-2" x="181.88" y="25" width="12.5" height="50"/>
    <rect class="cls-2" x="200.62" y="25" width="12.5" height="12.5"/>
    <rect class="cls-2" x="200.62" y="43.75" width="12.5" height="12.5"/>
    <rect class="cls-2" x="200.62" y="62.5" width="12.5" height="12.5"/>
  </g>
  <polygon class="cls-3" points="0 50 320 75 320 100 0 100 0 50"/>
  <polygon class="cls-4" points="320 50 0 100 320 100 320 50"/>
  <g>
    <path class="cls-1" d="M214.23,88.81v-13.5h2.93l7.08,9.64-.64-.1c-.06-.42-.12-.83-.15-1.21-.04-.39-.07-.77-.11-1.14-.03-.37-.06-.75-.08-1.14-.02-.39-.03-.8-.04-1.25,0-.45,0-.94,0-1.47v-3.34h3.18v13.5h-2.97l-7.39-9.95.98.14c.06.62.12,1.14.16,1.57.05.43.08.81.12,1.15s.05.64.07.91c.01.27.02.54.03.8,0,.26,0,.56,0,.88v4.51h-3.18Z"/>
    <path class="cls-1" d="M229.79,88.81v-13.5h9.41v2.8h-6.23v7.91h6.42v2.8h-9.6ZM231.33,83.27v-2.66h7v2.66h-7Z"/>
    <path class="cls-1" d="M242.23,88.81v-13.5h6.07c.86,0,1.64.19,2.34.56.7.37,1.25.88,1.65,1.53.4.65.6,1.39.6,2.21s-.2,1.61-.6,2.28c-.4.68-.95,1.21-1.64,1.59-.69.39-1.48.58-2.35.58h-2.95v4.74h-3.12ZM245.35,81.56h2.66c.33,0,.63-.07.88-.22.25-.15.44-.36.58-.63.14-.27.2-.58.2-.93s-.08-.65-.23-.92-.38-.47-.66-.61-.64-.21-1.05-.21h-2.37v3.51ZM249.71,88.81l-3.43-6.09,3.36-.48,3.82,6.58h-3.74Z"/>
    <path class="cls-1" d="M261.7,89c-1.02,0-1.95-.17-2.81-.51-.85-.34-1.6-.82-2.23-1.45-.63-.62-1.12-1.36-1.46-2.22-.34-.86-.51-1.8-.51-2.83s.18-1.93.54-2.78.86-1.58,1.49-2.21c.64-.62,1.39-1.11,2.26-1.46s1.82-.52,2.84-.52c.64,0,1.27.08,1.89.25.62.17,1.19.41,1.73.74.53.33.99.72,1.38,1.17l-2.01,2.3c-.27-.28-.56-.53-.86-.74s-.63-.38-.99-.49-.75-.17-1.16-.17c-.51,0-1,.09-1.46.28-.46.19-.85.45-1.2.79-.34.34-.61.76-.8,1.24-.19.49-.29,1.03-.29,1.64s.1,1.13.29,1.61c.19.48.46.9.81,1.24s.77.61,1.26.79c.49.18,1.04.27,1.65.27.41,0,.8-.06,1.18-.17.37-.12.72-.27,1.03-.47.31-.2.59-.43.84-.68l1.58,2.51c-.32.36-.75.68-1.28.96s-1.13.5-1.77.66c-.65.16-1.3.24-1.96.24Z"/>
    <path class="cls-1" d="M275.1,89c-1.03,0-1.97-.17-2.82-.52-.85-.35-1.59-.83-2.22-1.47-.63-.63-1.12-1.37-1.47-2.22s-.52-1.78-.52-2.8.17-1.95.52-2.8.84-1.59,1.47-2.22,1.37-1.12,2.22-1.47c.85-.35,1.78-.52,2.8-.52s1.95.17,2.8.52c.85.35,1.59.84,2.22,1.47.63.63,1.11,1.37,1.46,2.22.34.85.51,1.78.51,2.8s-.17,1.93-.51,2.79c-.34.85-.83,1.6-1.46,2.23s-1.37,1.12-2.22,1.47c-.85.35-1.77.52-2.78.52ZM275.08,85.91c.53,0,1.01-.1,1.46-.29.44-.19.83-.47,1.16-.82.33-.35.58-.77.76-1.24s.27-1,.27-1.56-.09-1.09-.27-1.56c-.18-.48-.43-.89-.76-1.24-.33-.35-.71-.63-1.16-.82s-.93-.29-1.46-.29-1.01.1-1.46.29-.83.47-1.17.82c-.33.35-.59.77-.76,1.24-.17.48-.26,1-.26,1.56s.09,1.09.26,1.57c.17.48.43.9.76,1.24.33.35.72.62,1.17.81.44.19.93.29,1.46.29Z"/>
    <path class="cls-1" d="M284.61,88.81v-13.5h2.93l7.08,9.64-.64-.1c-.06-.42-.12-.83-.15-1.21-.04-.39-.07-.77-.11-1.14-.03-.37-.06-.75-.08-1.14-.02-.39-.03-.8-.04-1.25,0-.45,0-.94,0-1.47v-3.34h3.18v13.5h-2.97l-7.39-9.95.98.14c.06.62.12,1.14.16,1.57.04.43.08.81.12,1.15s.05.64.07.91c.01.27.02.54.03.8,0,.26,0,.56,0,.88v4.51h-3.18Z"/>
    <path class="cls-1" d="M300.17,88.81v-13.5h9.41v2.8h-6.23v7.91h6.42v2.8h-9.6ZM301.71,83.27v-2.66h7v2.66h-7Z"/>
  </g>
</svg>