<?xml version="1.0" encoding="UTF-8"?>
<svg id="_レイヤー_1" data-name="レイヤー 1" xmlns="http://www.w3.org/2000/svg" viewBox="0 0 320 100">
  <defs>
    <style>
      .cls-1 {
        fill: #a9a9a9;
      }

      .cls-2 {
        fill: #202020;
      }

      .cls-3 {
        fill: none;
        stroke: #a9a9a9;
        stroke-linecap: round;
        stroke-linejoin: round;
        stroke-width: 2px;
      }
    </style>
  </defs>
  <rect class="cls-2" width="320" height="100"/>
  <g>
    <path class="cls-1" d="M116.1,65.55v-31.55h2.07l21.9,28.71-.54,1.17c-.03-.24-.05-.87-.07-1.89-.02-1.02-.03-2.25-.05-3.67-.02-1.43-.03-2.89-.05-4.39-.02-1.5-.03-2.9-.05-4.19-.02-1.29-.02-2.28-.02-2.97v-12.75h2.25v31.55h-2.16l-22.04-28.89.63-1.26c.03.6.06,1.44.09,2.52.03,1.08.06,2.26.09,3.54.03,1.28.06,2.52.09,3.74.03,1.22.05,2.27.07,3.16.01.89.02,1.45.02,1.69v15.5h-2.25Z"/>
    <path class="cls-1" d="M159.5,66c-2.25,0-4.26-.51-6.02-1.53-1.76-1.02-3.13-2.45-4.12-4.28-.99-1.83-1.49-3.97-1.49-6.4,0-1.77.28-3.4.83-4.87.56-1.47,1.33-2.76,2.32-3.85.99-1.1,2.19-1.95,3.58-2.55,1.4-.6,2.92-.9,4.57-.9s3.09.27,4.39.81c1.31.54,2.41,1.31,3.31,2.32.9,1.01,1.58,2.19,2.03,3.56.45,1.37.65,2.88.59,4.53l-.05,1.22h-19.92v-2.07h18.7l-.99.81v-1.08c0-1.2-.29-2.4-.88-3.61-.59-1.2-1.48-2.21-2.68-3.02-1.2-.81-2.72-1.22-4.55-1.22-1.71,0-3.24.38-4.57,1.13-1.34.75-2.39,1.85-3.15,3.29-.77,1.44-1.15,3.23-1.15,5.36s.38,3.82,1.13,5.34c.75,1.52,1.84,2.69,3.27,3.52,1.43.83,3.18,1.24,5.25,1.24,1.11,0,2.25-.18,3.43-.54,1.17-.36,2.49-1.14,3.97-2.34l1.17,1.67c-.66.63-1.44,1.21-2.34,1.74-.9.53-1.91.95-3.02,1.26-1.11.32-2.31.47-3.61.47Z"/>
    <path class="cls-1" d="M174.06,65.55v-23.44h2.16l.23,5.23h-.32c.33-.99.84-1.92,1.53-2.79.69-.87,1.54-1.58,2.55-2.12,1.01-.54,2.17-.81,3.49-.81.51,0,.98.04,1.42.11.44.08.83.16,1.19.25l-.68,2.61c-.42-.18-.83-.3-1.22-.36-.39-.06-.74-.09-1.04-.09-1.2,0-2.25.21-3.13.63-.89.42-1.62,1-2.21,1.74-.59.74-1.02,1.57-1.31,2.5-.29.93-.43,1.91-.43,2.93v13.61h-2.25Z"/>
    <path class="cls-1" d="M198.44,66c-2.25,0-4.26-.53-6.02-1.58-1.76-1.05-3.14-2.49-4.15-4.33-1.01-1.83-1.51-3.94-1.51-6.31s.5-4.48,1.51-6.31c1.01-1.83,2.4-3.27,4.17-4.3,1.77-1.04,3.82-1.55,6.13-1.55,1.92,0,3.67.38,5.25,1.13,1.58.75,2.89,1.8,3.94,3.15l-1.44,1.76c-.66-.81-1.41-1.49-2.25-2.05-.84-.56-1.74-.98-2.7-1.28-.96-.3-1.95-.45-2.97-.45-1.77,0-3.35.43-4.73,1.28-1.38.86-2.48,2.03-3.29,3.52s-1.22,3.19-1.22,5.12.4,3.64,1.19,5.14c.8,1.5,1.89,2.68,3.27,3.54,1.38.86,2.93,1.28,4.64,1.28.99,0,1.97-.15,2.93-.45.96-.3,1.86-.73,2.7-1.28.84-.56,1.61-1.24,2.3-2.05l1.44,1.76c-1.08,1.35-2.44,2.4-4.08,3.16-1.64.75-3.34,1.13-5.12,1.13Z"/>
    <path class="cls-1" d="M222.19,66c-2.34,0-4.42-.53-6.24-1.58-1.82-1.05-3.25-2.51-4.28-4.37-1.04-1.86-1.55-3.98-1.55-6.36s.52-4.42,1.55-6.24c1.04-1.82,2.46-3.25,4.28-4.28,1.82-1.04,3.9-1.55,6.24-1.55s4.42.52,6.24,1.55c1.82,1.04,3.24,2.46,4.26,4.28,1.02,1.82,1.53,3.9,1.53,6.24s-.51,4.49-1.53,6.36c-1.02,1.86-2.44,3.32-4.26,4.37-1.82,1.05-3.9,1.58-6.24,1.58ZM222.19,63.75c1.86,0,3.52-.44,4.98-1.31,1.46-.87,2.6-2.06,3.43-3.56.83-1.5,1.24-3.23,1.24-5.18s-.41-3.58-1.24-5.07c-.83-1.49-1.97-2.65-3.43-3.49-1.46-.84-3.12-1.26-4.98-1.26s-3.57.42-5.03,1.26c-1.46.84-2.6,2.01-3.43,3.49-.83,1.49-1.24,3.18-1.24,5.07s.41,3.68,1.24,5.18c.83,1.5,1.97,2.69,3.43,3.56,1.46.87,3.13,1.31,5.03,1.31Z"/>
    <path class="cls-1" d="M238.96,65.55v-23.44h2.16l.23,4.96h-.27c.33-.99.93-1.9,1.8-2.73.87-.83,1.92-1.49,3.13-1.98,1.22-.5,2.5-.74,3.85-.74,1.65,0,3.06.35,4.21,1.04,1.16.69,2.03,1.76,2.61,3.2.59,1.44.88,3.28.88,5.5v14.2h-2.25v-14.11c0-1.74-.23-3.18-.7-4.3-.47-1.13-1.15-1.97-2.05-2.52-.9-.56-2.03-.83-3.38-.83-1.17,0-2.24.2-3.2.61-.96.41-1.8.95-2.52,1.65-.72.69-1.28,1.48-1.67,2.37-.39.89-.59,1.83-.59,2.82v14.33h-2.25Z"/>
    <path class="cls-1" d="M273.89,66c-2.25,0-4.26-.51-6.02-1.53-1.76-1.02-3.13-2.45-4.12-4.28-.99-1.83-1.49-3.97-1.49-6.4,0-1.77.28-3.4.83-4.87.56-1.47,1.33-2.76,2.32-3.85.99-1.1,2.19-1.95,3.58-2.55,1.4-.6,2.92-.9,4.57-.9s3.09.27,4.39.81c1.31.54,2.41,1.31,3.31,2.32.9,1.01,1.58,2.19,2.03,3.56.45,1.37.65,2.88.59,4.53l-.04,1.22h-19.92v-2.07h18.7l-.99.81v-1.08c0-1.2-.29-2.4-.88-3.61-.59-1.2-1.48-2.21-2.68-3.02-1.2-.81-2.72-1.22-4.55-1.22-1.71,0-3.24.38-4.57,1.13-1.34.75-2.39,1.85-3.16,3.29-.77,1.44-1.15,3.23-1.15,5.36s.38,3.82,1.13,5.34c.75,1.52,1.84,2.69,3.27,3.52,1.43.83,3.18,1.24,5.25,1.24,1.11,0,2.25-.18,3.43-.54,1.17-.36,2.49-1.14,3.97-2.34l1.17,1.67c-.66.63-1.44,1.21-2.34,1.74-.9.53-1.91.95-3.02,1.26-1.11.32-2.31.47-3.61.47Z"/>
  </g>
  <g>
    <line class="cls-3" x1="39.22" y1="65.04" x2="39.22" y2="34.99"/>
    <line class="cls-3" x1="39.22" y1="34.99" x2="69.26" y2="34.99"/>
    <line class="cls-3" x1="39.22" y1="34.99" x2="69.26" y2="65.04"/>
    <polyline class="cls-3" points="76.78 34.99 61.75 50.02 76.78 65.04"/>
  </g>
</svg>