<?xml version="1.0" encoding="UTF-8"?>
<svg id="_レイヤー_1" data-name="レイヤー 1" xmlns="http://www.w3.org/2000/svg" viewBox="0 0 1920 1080">
  <defs>
    <style>
      .cls-1 {
        fill: #a9a9a9;
      }

      .cls-2 {
        fill: none;
        stroke: #a9a9a9;
        stroke-linecap: round;
        stroke-linejoin: round;
        stroke-width: 10px;
      }

      .cls-3 {
        fill: #202020;
      }
    </style>
  </defs>
  <rect class="cls-3" width="1920" height="1080"/>
  <g>
    <path class="cls-1" d="M794.57,606.24v-134.4h8.83l93.31,122.3-2.3,4.99c-.13-1.02-.23-3.71-.29-8.06-.07-4.35-.13-9.57-.19-15.65-.07-6.08-.13-12.32-.19-18.72-.07-6.4-.13-12.35-.19-17.86-.07-5.5-.1-9.73-.1-12.67v-54.34h9.6v134.4h-9.22l-93.89-123.07,2.69-5.38c.13,2.56.26,6.14.38,10.75.13,4.61.25,9.63.38,15.07.13,5.44.26,10.75.38,15.94.13,5.18.22,9.67.29,13.44.06,3.78.1,6.18.1,7.2v66.05h-9.6Z"/>
    <path class="cls-1" d="M979.47,608.16c-9.6,0-18.14-2.17-25.63-6.53-7.49-4.35-13.34-10.43-17.57-18.24-4.22-7.81-6.34-16.9-6.34-27.26,0-7.55,1.18-14.46,3.55-20.74,2.37-6.27,5.66-11.74,9.89-16.42,4.22-4.67,9.31-8.29,15.26-10.85,5.95-2.56,12.45-3.84,19.49-3.84s13.15,1.15,18.72,3.46c5.57,2.3,10.27,5.6,14.11,9.89,3.84,4.29,6.72,9.35,8.64,15.17,1.92,5.83,2.75,12.26,2.5,19.3l-.19,5.18h-84.86v-8.83h79.68l-4.22,3.46v-4.61c0-5.12-1.25-10.24-3.74-15.36-2.5-5.12-6.31-9.41-11.42-12.86-5.12-3.46-11.59-5.18-19.39-5.18-7.3,0-13.79,1.6-19.49,4.8-5.7,3.2-10.18,7.87-13.44,14.02-3.26,6.14-4.9,13.76-4.9,22.85s1.6,16.29,4.8,22.75c3.2,6.46,7.84,11.46,13.92,14.98,6.08,3.52,13.54,5.28,22.37,5.28,4.73,0,9.6-.77,14.59-2.3,4.99-1.54,10.62-4.86,16.9-9.98l4.99,7.1c-2.82,2.69-6.14,5.15-9.98,7.39-3.84,2.24-8.13,4.03-12.86,5.38-4.74,1.34-9.86,2.02-15.36,2.02Z"/>
    <path class="cls-1" d="M1041.48,606.24v-99.84h9.22l.96,22.27h-1.34c1.41-4.22,3.58-8.19,6.53-11.9,2.94-3.71,6.56-6.72,10.85-9.02,4.29-2.3,9.25-3.46,14.88-3.46,2.18,0,4.19.16,6.05.48,1.85.32,3.55.67,5.09,1.06l-2.88,11.14c-1.79-.77-3.52-1.28-5.18-1.54-1.67-.25-3.14-.38-4.42-.38-5.12,0-9.57.9-13.34,2.69-3.78,1.79-6.91,4.26-9.41,7.39-2.5,3.14-4.35,6.69-5.57,10.66-1.22,3.97-1.82,8.13-1.82,12.48v57.98h-9.6Z"/>
    <path class="cls-1" d="M1145.35,608.16c-9.6,0-18.14-2.24-25.63-6.72-7.49-4.48-13.38-10.62-17.66-18.43-4.29-7.81-6.43-16.77-6.43-26.88s2.14-19.07,6.43-26.88c4.29-7.81,10.21-13.92,17.76-18.34,7.55-4.42,16.25-6.62,26.11-6.62,8.19,0,15.65,1.6,22.37,4.8,6.72,3.2,12.32,7.68,16.8,13.44l-6.14,7.49c-2.82-3.46-6.02-6.37-9.6-8.74-3.58-2.37-7.42-4.19-11.52-5.47-4.1-1.28-8.32-1.92-12.67-1.92-7.55,0-14.27,1.82-20.16,5.47-5.89,3.65-10.56,8.64-14.02,14.98s-5.18,13.6-5.18,21.79,1.69,15.49,5.09,21.89c3.39,6.4,8.03,11.42,13.92,15.07,5.89,3.65,12.48,5.47,19.78,5.47,4.22,0,8.38-.64,12.48-1.92,4.09-1.28,7.93-3.1,11.52-5.47,3.58-2.37,6.85-5.28,9.79-8.74l6.14,7.49c-4.61,5.76-10.4,10.24-17.38,13.44-6.98,3.2-14.24,4.8-21.79,4.8Z"/>
    <path class="cls-1" d="M1246.53,608.16c-9.98,0-18.85-2.24-26.59-6.72-7.75-4.48-13.82-10.69-18.24-18.62-4.42-7.94-6.62-16.96-6.62-27.07s2.21-18.85,6.62-26.59c4.42-7.74,10.49-13.82,18.24-18.24,7.74-4.42,16.61-6.62,26.59-6.62s18.85,2.21,26.59,6.62c7.74,4.42,13.79,10.5,18.14,18.24,4.35,7.75,6.53,16.61,6.53,26.59s-2.18,19.14-6.53,27.07c-4.35,7.94-10.4,14.14-18.14,18.62-7.75,4.48-16.61,6.72-26.59,6.72ZM1246.53,598.56c7.94,0,15.01-1.85,21.22-5.57,6.21-3.71,11.07-8.77,14.59-15.17,3.52-6.4,5.28-13.76,5.28-22.08s-1.76-15.26-5.28-21.6c-3.52-6.34-8.38-11.29-14.59-14.88-6.21-3.58-13.28-5.38-21.22-5.38s-15.2,1.79-21.41,5.38c-6.21,3.58-11.07,8.54-14.59,14.88-3.52,6.34-5.28,13.54-5.28,21.6s1.76,15.68,5.28,22.08c3.52,6.4,8.38,11.46,14.59,15.17,6.21,3.71,13.34,5.57,21.41,5.57Z"/>
    <path class="cls-1" d="M1317.96,606.24v-99.84h9.22l.96,21.12h-1.15c1.41-4.22,3.97-8.09,7.68-11.62,3.71-3.52,8.16-6.34,13.34-8.45,5.18-2.11,10.66-3.17,16.42-3.17,7.04,0,13.02,1.47,17.95,4.42,4.93,2.95,8.64,7.49,11.14,13.63,2.5,6.14,3.74,13.95,3.74,23.42v60.48h-9.6v-60.1c0-7.42-.99-13.54-2.98-18.34-1.99-4.8-4.9-8.38-8.74-10.75-3.84-2.37-8.64-3.55-14.4-3.55-4.99,0-9.54.86-13.63,2.59-4.1,1.73-7.68,4.06-10.75,7.01-3.07,2.95-5.44,6.31-7.1,10.08-1.67,3.78-2.5,7.78-2.5,12v61.06h-9.6Z"/>
    <path class="cls-1" d="M1466.76,608.16c-9.6,0-18.14-2.17-25.63-6.53-7.49-4.35-13.34-10.43-17.57-18.24-4.22-7.81-6.34-16.9-6.34-27.26,0-7.55,1.18-14.46,3.55-20.74,2.37-6.27,5.66-11.74,9.89-16.42,4.22-4.67,9.31-8.29,15.26-10.85,5.95-2.56,12.45-3.84,19.49-3.84s13.15,1.15,18.72,3.46c5.57,2.3,10.27,5.6,14.11,9.89,3.84,4.29,6.72,9.35,8.64,15.17,1.92,5.83,2.75,12.26,2.5,19.3l-.19,5.18h-84.86v-8.83h79.68l-4.22,3.46v-4.61c0-5.12-1.25-10.24-3.74-15.36-2.5-5.12-6.31-9.41-11.42-12.86-5.12-3.46-11.59-5.18-19.39-5.18-7.3,0-13.79,1.6-19.49,4.8-5.7,3.2-10.18,7.87-13.44,14.02-3.26,6.14-4.9,13.76-4.9,22.85s1.6,16.29,4.8,22.75c3.2,6.46,7.84,11.46,13.92,14.98,6.08,3.52,13.54,5.28,22.37,5.28,4.73,0,9.6-.77,14.59-2.3,4.99-1.54,10.62-4.86,16.9-9.98l4.99,7.1c-2.82,2.69-6.14,5.15-9.98,7.39-3.84,2.24-8.13,4.03-12.86,5.38-4.74,1.34-9.86,2.02-15.36,2.02Z"/>
  </g>
  <g>
    <line class="cls-2" x1="460" y1="604" x2="460" y2="476"/>
    <line class="cls-2" x1="460" y1="476" x2="588" y2="476"/>
    <line class="cls-2" x1="460" y1="476" x2="588" y2="604"/>
    <polyline class="cls-2" points="620 476 556 540 620 604"/>
  </g>
</svg>