<?xml version="1.0" encoding="UTF-8"?>
<svg id="_レイヤー_1" data-name="レイヤー 1" xmlns="http://www.w3.org/2000/svg" viewBox="0 0 320 100">
  <defs>
    <style>
      .cls-1 {
        fill: #404040;
      }

      .cls-2 {
        fill: #606060;
      }

      .cls-3 {
        fill: #fff;
      }

      .cls-4 {
        fill: #202020;
      }
    </style>
  </defs>
  <rect class="cls-1" width="320" height="100"/>
  <path class="cls-4" d="M120,0h0c55.23,55.23,144.77,55.23,200,0h0"/>
  <g>
    <rect class="cls-3" x="42.5" y="38" width="6" height="24"/>
    <rect class="cls-3" x="60.5" y="47" width="6" height="15"/>
    <rect class="cls-3" x="51.5" y="38" width="6" height="15"/>
    <rect class="cls-3" x="69.5" y="38" width="6" height="24"/>
    <rect class="cls-3" x="78.5" y="38" width="6" height="24"/>
    <rect class="cls-3" x="87.5" y="38" width="6" height="6"/>
    <rect class="cls-3" x="87.5" y="47" width="6" height="6"/>
    <rect class="cls-3" x="87.5" y="56" width="6" height="6"/>
  </g>
  <g>
    <path class="cls-3" d="M126.58,61.6v-23.21h4.48l10.67,16.01v-16.01h4.48v23.21h-4.48l-10.67-15.98v15.98h-4.48Z"/>
    <path class="cls-3" d="M150.75,61.6v-23.21h15.28v3.61h-10.81v6.07h9.81v3.48h-9.81v6.43h10.81v3.61h-15.28Z"/>
    <path class="cls-3" d="M170.07,61.6v-23.21h8.68c1.86,0,3.4.32,4.63.96,1.22.64,2.14,1.5,2.73,2.57.6,1.07.9,2.26.9,3.56s-.29,2.39-.88,3.46c-.59,1.07-1.49,1.93-2.72,2.59-1.23.65-2.8.98-4.72.98h-4.14v9.08h-4.48ZM174.55,49.27h3.91c1.37,0,2.37-.33,3.02-1,.64-.66.96-1.54.96-2.62s-.31-1.94-.94-2.57c-.63-.63-1.64-.94-3.03-.94h-3.91v7.13ZM182.11,61.6l-4.77-10.21h4.84l5.04,10.21h-5.11Z"/>
    <path class="cls-3" d="M201.4,62c-2.3,0-4.29-.5-5.97-1.51-1.68-1.01-2.96-2.41-3.86-4.21-.9-1.8-1.34-3.88-1.34-6.25s.45-4.45,1.34-6.27c.9-1.81,2.18-3.23,3.86-4.24,1.68-1.02,3.67-1.52,5.97-1.52,2.81,0,5.11.7,6.91,2.09,1.8,1.39,2.91,3.36,3.33,5.9h-4.9c-.29-1.24-.88-2.21-1.79-2.9s-2.1-1.04-3.58-1.04c-1.39,0-2.57.33-3.55.98-.97.65-1.72,1.57-2.24,2.75-.52,1.18-.78,2.6-.78,4.26s.26,3.05.78,4.24c.52,1.19,1.27,2.11,2.24,2.75.97.64,2.16.96,3.55.96,1.48,0,2.67-.33,3.58-.98.91-.65,1.5-1.56,1.79-2.73h4.9c-.42,2.41-1.53,4.3-3.33,5.67-1.8,1.37-4.1,2.06-6.91,2.06Z"/>
    <path class="cls-3" d="M226.13,62c-2.23,0-4.21-.51-5.92-1.52s-3.06-2.42-4.04-4.23c-.98-1.8-1.48-3.88-1.48-6.25s.49-4.45,1.48-6.25c.98-1.8,2.33-3.21,4.04-4.23,1.71-1.02,3.69-1.52,5.92-1.52s4.28.51,6.02,1.52c1.73,1.02,3.08,2.43,4.04,4.23s1.44,3.88,1.44,6.25-.48,4.45-1.44,6.25c-.96,1.8-2.31,3.21-4.04,4.23s-3.74,1.52-6.02,1.52ZM226.13,57.99c1.44,0,2.67-.33,3.7-.98,1.03-.65,1.82-1.57,2.38-2.77.56-1.19.85-2.61.85-4.24s-.28-3.08-.85-4.26c-.56-1.18-1.36-2.09-2.38-2.73s-2.26-.96-3.7-.96-2.57.32-3.6.96-1.83,1.55-2.4,2.73c-.57,1.18-.86,2.6-.86,4.26s.29,3.05.86,4.24,1.38,2.12,2.4,2.77c1.03.65,2.23.98,3.6.98Z"/>
    <path class="cls-3" d="M241.45,61.6v-23.21h4.48l10.67,16.01v-16.01h4.48v23.21h-4.48l-10.67-15.98v15.98h-4.48Z"/>
    <path class="cls-3" d="M265.62,61.6v-23.21h15.28v3.61h-10.81v6.07h9.81v3.48h-9.81v6.43h10.81v3.61h-15.28Z"/>
  </g>
  <path class="cls-2" d="M0,100h0c55.23-55.23,144.77-55.23,200,0h0"/>
  <g>
    <path class="cls-2" d="M225.03,91.87l-1.62-5.51h.92l1.26,4.64h-.16l1.37-4.64h1.04l1.39,4.63h-.18s1.25-4.63,1.25-4.63h.93l-1.61,5.51h-.94l-1.44-4.85h.19l-1.44,4.85h-.94Z"/>
    <path class="cls-2" d="M233.37,91.87l-1.62-5.51h.92l1.26,4.64h-.16l1.37-4.64h1.04l1.39,4.63h-.18s1.25-4.63,1.25-4.63h.93l-1.61,5.51h-.94l-1.44-4.85h.19l-1.44,4.85h-.94Z"/>
    <path class="cls-2" d="M241.71,91.87l-1.62-5.51h.92l1.26,4.64h-.16l1.37-4.64h1.04l1.39,4.63h-.18s1.25-4.63,1.25-4.63h.93l-1.61,5.51h-.94l-1.44-4.85h.19l-1.44,4.85h-.94Z"/>
    <path class="cls-2" d="M248.89,91.92c-.18,0-.33-.06-.45-.18-.12-.12-.18-.27-.18-.44s.06-.32.18-.44c.12-.12.27-.18.45-.18s.33.06.45.18c.12.12.17.27.17.44s-.06.32-.17.44-.27.18-.45.18Z"/>
    <path class="cls-2" d="M250.73,91.87v-5.51h.83l.04.96c.18-.34.42-.61.75-.8s.69-.29,1.11-.29.8.09,1.11.26c.31.17.56.43.73.78.17.35.26.78.26,1.32v3.29h-.92v-3.19c0-.55-.12-.97-.37-1.25s-.59-.42-1.03-.42c-.31,0-.58.07-.82.22-.24.15-.43.36-.57.64-.14.28-.21.63-.21,1.04v2.94h-.92Z"/>
    <path class="cls-2" d="M259.42,92c-.52,0-.97-.12-1.37-.36s-.71-.58-.93-1.01c-.23-.43-.34-.94-.34-1.51s.11-1.09.33-1.52c.22-.43.54-.76.94-1.01.4-.24.87-.36,1.39-.36s1,.12,1.37.36c.37.24.66.56.86.95s.3.82.3,1.28v.23c0,.08,0,.17-.01.27h-4.5v-.71h3.62c-.02-.5-.19-.9-.5-1.18-.31-.28-.7-.43-1.16-.43-.31,0-.6.07-.87.21-.27.14-.48.35-.64.62s-.24.61-.24,1.02v.31c0,.45.08.83.25,1.14.16.31.38.54.64.69s.55.23.86.23c.39,0,.7-.09.96-.26.25-.17.43-.4.54-.69h.91c-.09.33-.24.62-.46.89s-.49.47-.81.62c-.32.15-.7.22-1.13.22Z"/>
    <path class="cls-2" d="M263.21,91.87v-5.51h.83l.07,1.05c.12-.25.28-.46.47-.63.19-.18.43-.31.7-.4.27-.09.58-.14.93-.14v.96h-.34c-.23,0-.46.03-.67.09-.21.06-.4.16-.56.3-.16.14-.29.33-.38.56-.09.24-.14.53-.14.88v2.84h-.92Z"/>
    <path class="cls-2" d="M269.53,92c-.52,0-.98-.12-1.39-.36s-.73-.58-.97-1.01c-.23-.43-.35-.93-.35-1.5s.12-1.09.35-1.52c.23-.43.56-.77.97-1.01.41-.24.88-.37,1.39-.37.66,0,1.2.17,1.64.51.44.34.71.79.83,1.36h-.94c-.07-.34-.25-.61-.54-.8-.28-.19-.62-.28-1.01-.28-.31,0-.6.08-.87.23-.27.16-.48.39-.64.71s-.24.7-.24,1.16c0,.34.05.65.14.91.09.27.22.49.38.66.16.18.35.31.56.4.21.09.44.14.67.14.26,0,.5-.04.71-.13.21-.08.39-.21.54-.38.15-.17.24-.36.3-.59h.94c-.12.55-.4,1-.84,1.35-.44.35-.99.52-1.63.52Z"/>
    <path class="cls-2" d="M275.76,92c-.51,0-.97-.12-1.38-.35-.41-.24-.73-.57-.96-1.01-.23-.43-.35-.94-.35-1.51s.12-1.1.35-1.54c.24-.43.56-.77.97-1.01s.87-.36,1.38-.36.99.12,1.39.36c.4.24.72.57.96,1.01.24.43.35.94.35,1.52s-.12,1.09-.36,1.53c-.24.43-.56.77-.97,1.01s-.87.35-1.4.35ZM275.77,91.21c.31,0,.6-.08.87-.23.27-.16.49-.39.66-.71.17-.31.25-.7.25-1.16s-.08-.85-.25-1.16c-.16-.31-.38-.54-.64-.7-.27-.16-.56-.23-.88-.23s-.6.08-.87.23c-.27.16-.49.39-.66.7-.16.31-.25.7-.25,1.16s.08.85.25,1.16c.16.31.38.55.64.71.27.16.56.23.87.23Z"/>
    <path class="cls-2" d="M279.78,91.87v-5.51h.83l.04.96c.18-.34.42-.61.75-.8.32-.19.69-.29,1.11-.29s.8.09,1.12.26c.31.17.56.43.73.78.17.35.26.78.26,1.32v3.29h-.92v-3.19c0-.55-.12-.97-.37-1.25-.24-.28-.59-.42-1.03-.42-.31,0-.58.07-.82.22s-.43.36-.57.64-.21.63-.21,1.04v2.94h-.92Z"/>
    <path class="cls-2" d="M288.47,92c-.52,0-.97-.12-1.37-.36-.4-.24-.71-.58-.93-1.01-.23-.43-.34-.94-.34-1.51s.11-1.09.33-1.52c.22-.43.54-.76.94-1.01.4-.24.87-.36,1.39-.36s1,.12,1.37.36c.37.24.66.56.86.95s.3.82.3,1.28v.23c0,.08,0,.17-.01.27h-4.5v-.71h3.62c-.02-.5-.19-.9-.5-1.18-.31-.28-.7-.43-1.16-.43-.31,0-.6.07-.87.21-.27.14-.48.35-.64.62s-.24.61-.24,1.02v.31c0,.45.08.83.25,1.14.16.31.38.54.64.69s.55.23.86.23c.39,0,.7-.09.96-.26.25-.17.43-.4.54-.69h.91c-.09.33-.24.62-.46.89s-.49.47-.81.62c-.32.15-.7.22-1.13.22Z"/>
    <path class="cls-2" d="M292.59,91.92c-.18,0-.33-.06-.45-.18s-.18-.27-.18-.44.06-.32.18-.44c.12-.12.27-.18.45-.18s.33.06.45.18c.12.12.17.27.17.44s-.06.32-.17.44c-.12.12-.27.18-.45.18Z"/>
    <path class="cls-2" d="M296.85,92c-.53,0-1-.13-1.4-.38-.4-.25-.71-.6-.93-1.03-.22-.44-.33-.93-.33-1.49s.11-1.05.33-1.48c.22-.43.53-.77.93-1.02.4-.25.87-.37,1.4-.37.45,0,.85.09,1.19.27.34.18.6.44.78.76v-3.27h.92v7.87h-.83l-.08-.91c-.12.18-.27.35-.45.51-.18.16-.4.28-.66.38-.25.1-.55.15-.89.15ZM296.96,91.2c.36,0,.68-.09.96-.26.28-.18.49-.42.64-.73.15-.31.23-.68.23-1.1s-.08-.78-.23-1.09c-.15-.31-.37-.56-.64-.73-.28-.17-.6-.26-.96-.26s-.67.09-.95.26c-.28.18-.49.42-.64.73-.15.31-.23.68-.23,1.09s.08.79.23,1.1c.15.31.37.55.64.73.28.17.59.26.95.26Z"/>
    <path class="cls-2" d="M303.69,92c-.52,0-.97-.12-1.37-.36-.4-.24-.71-.58-.93-1.01-.23-.43-.34-.94-.34-1.51s.11-1.09.33-1.52c.22-.43.54-.76.94-1.01.4-.24.87-.36,1.39-.36s1,.12,1.37.36c.37.24.66.56.86.95s.3.82.3,1.28v.23c0,.08,0,.17-.01.27h-4.5v-.71h3.62c-.02-.5-.19-.9-.5-1.18-.31-.28-.7-.43-1.16-.43-.31,0-.6.07-.87.21-.27.14-.48.35-.64.62s-.24.61-.24,1.02v.31c0,.45.08.83.25,1.14.16.31.38.54.64.69s.55.23.86.23c.39,0,.7-.09.96-.26.25-.17.43-.4.54-.69h.91c-.09.33-.24.62-.46.89s-.49.47-.81.62c-.32.15-.7.22-1.13.22Z"/>
    <path class="cls-2" d="M308.85,91.87l-2.09-5.51h.96l1.66,4.62,1.67-4.62h.94l-2.09,5.51h-1.06Z"/>
  </g>
</svg>